<svg width="720" height="676" xmlns="http://www.w3.org/2000/svg">
 <defs>
  <filter color-interpolation-filters="sRGB" x="-0.03989" y="-0.12104" width="1.0798" height="1.2421" id="imagebot_13">
   <feGaussianBlur stdDeviation="11.86875" id="imagebot_14"/>
  </filter>
 </defs>
 <g id="imagebot_2">
  <path transform="translate(-25.5994 0.00750192) matrix(1 0 0 1 -68.721 -58.594)" d="M169.86,507.87C149.075,585.001 118.061,652.37 97.206,729.48C99.3075,734.1542 106.0727,730.5302 109.925,731.6675C343.175,731.5845 576.485,731.8342 809.705,731.5425C814.0018,728.957 808.5838,722.8875 808.6973,719.0515C788.4673,644.8915 760.2573,576.5015 740.0073,502.3515C543.9873,502.3515 366.2973,506.3877 170.2773,506.3877L170.0073,507.3477L169.86,507.87z" filter="url(#imagebot_13)" id="imagebot_12"/>
  <path transform="translate(-25.5994 0.00750192) matrix(1 0 0 1 -68.721 -58.594)" d="M746.45,498.58L809.383,729.22C809.4473,729.4558 809.14644,729.6611 808.85259,729.6611L99.91259,729.6611C99.61874,729.6611 99.32038,729.4565 99.38218,729.22L161.44918,498.58L746.45,498.58z" fill="#dcd3ba" id="imagebot_11"/>
  <path transform="translate(-25.5994 0.00750192) matrix(1 0 0 1 -68.721 -58.594)" d="M726.73,727.45C726.73,726.3364 723.4083,723.2349 721.663,722.7189C719.3442,722.0334 712.4443,717.8988 712.4443,717.1948C712.4443,716.885 712.04251,716.6177 711.55144,716.601C708.89514,716.51 701.31544,707.3231 699.62944,702.151C698.97971,700.1575 698.03054,699.0883 695.98324,698.0439C694.46094,697.2673 692.71434,696.6318 692.10204,696.6318C691.48968,696.6318 689.30724,695.7413 687.25214,694.6528S681.58704,692.085 679.22994,691.3654C672.51514,689.3156 669.20794,687.4596 664.52894,683.1162C661.18514,680.0123 659.87814,678.1892 658.83964,675.1806C658.09809,673.0323 657.48084,670.7604 657.46804,670.1319C657.45514,669.5033 656.52055,667.7133 655.39104,666.154S653.11484,662.6179 652.84294,661.7611C652.57099,660.9043 652.04873,660.2033 651.68234,660.2033C651.31597,660.2033 651.01619,659.5723 651.01619,658.8012C651.01619,656.8973 644.26049,650.4582 640.30219,648.5892C638.53429,647.7545 636.83089,646.6512 636.51669,646.1374C636.20252,645.6237 634.75609,645.2031 633.30239,645.2029C628.66939,645.202 612.44539,640.2944 612.44539,638.8939C612.44539,638.577 611.4862,637.2434 610.31389,635.9303S607.97529,632.8905 607.72219,632.0931C607.4691,631.2957 606.01759,628.61 604.49659,626.125C601.81489,621.7437 601.73079,621.407 601.72039,615.012C601.71039,608.9239 600.98976,605.2427 599.21699,602.226C598.83189,601.5706 595.94539,599.7875 592.80249,598.2635C589.65959,596.7396 586.17959,594.8923 585.06909,594.1585C583.38089,593.0429 580.98099,592.7393 570.42609,592.3062C557.06809,591.758 550.78209,590.4539 546.60209,587.3639C545.52619,586.5684 544.37599,585.9176 544.04609,585.9176C543.71625,585.9176 543.03959,584.7926 542.54239,583.4176S541.17699,580.9176 540.61319,580.9176C540.04933,580.9176 539.58799,580.6029 539.58799,580.2183C539.58799,579.2987 531.78529,571.6318 530.84939,571.6318C530.23062,571.6318 522.37849,567.8758 517.80239,565.3909C517.01667,564.9642 514.44529,564.2434 512.08809,563.7891C507.31599,562.8694 501.77009,560.4212 501.22109,558.9923C501.02442,558.4797 500.49611,558.0604 500.04709,558.0604C498.64569,558.0604 495.55109,553.5443 495.02339,550.7292C494.74622,549.2507 494.49506,542.8509 494.46527,536.5072C494.41187,525.1412 494.38207,524.9282 492.40807,521.8152C491.30637,520.078 489.01577,517.2468 487.31787,515.5236S482.70237,510.8128 480.83437,508.8844S475.99947,504.0522 474.24127,502.4315L471.45037,498.588L746.45037,498.588L777.54337,613.778C794.42337,676.312 807.38237,727.788 807.40437,727.888C807.42637,727.986 789.28337,728.0666 767.08737,728.0666S726.73037,727.7921 726.73037,727.4566L726.73,727.45z" fill="#89d375" opacity="0.4856" id="imagebot_10"/>
  <path transform="translate(-25.5994 0.00750192) matrix(1 0 0 1 -68.721 -58.594)" d="M589.45,498.58L634.45,498.58L644.383,729.66L579.383,729.66L589.45,498.58z" fill="#f7fd9f" id="imagebot_9"/>
  <g fill="#fff" transform="translate(-25.5994 0.00750192) matrix(1 0 0 1 36.299 -677.374)" id="imagebot_6">
   <path d="M676.43,1242.4L686.43,1282.4L96.43,1282.4L106.43,1247.4L676.43,1242.4z" id="imagebot_8"/>
   <path d="M116.43,1117.4L156.43,1117.4L120.363,1282.48L70.363,1282.48L116.43,1117.4z" id="imagebot_7"/>
  </g>
  <path transform="translate(-25.5994 0.00750192) matrix(1 0 0 1 -68.721 -58.594)" d="M746.45,498.58L809.383,729.22C809.4473,729.4558 809.14644,729.6611 808.85259,729.6611L99.91259,729.6611C99.61874,729.6611 99.32038,729.4565 99.38218,729.22L161.44918,498.58L746.45,498.58z" fill="none" id="imagebot_5"/>
  <path transform="translate(-25.5994 0.00750192) matrix(1 0 0 1 -68.721 -58.594)" fill="none" stroke-width="10" stroke="#000" d="M746.45,498.58L809.383,729.22C809.4473,729.4558 809.14644,729.6611 808.85259,729.6611L99.91259,729.6611C99.61874,729.6611 99.32038,729.4565 99.38218,729.22L161.44918,498.58L746.45,498.58z" opacity="0.8" id="imagebot_4">Q</path>
  <path transform="translate(-25.5994 0.00750192) matrix(1 0 0 1 -68.721 -58.594)" d="M452.08,63.785C352.596,63.785 272.27,144.195 272.27,243.375C272.27,274.561 280.2388,303.903 294.208,329.469L452.088,593.779L609.968,329.469C623.937,303.903 631.906,274.561 631.906,243.375C631.906,144.191 551.578,63.785 452.096,63.785L452.08,63.785zM450.08,168.155C450.7474,168.1381 451.4085,168.155 452.08,168.155C495.055,168.155 529.892,202.993 529.892,245.968S495.054,323.78 452.08,323.78C409.105,323.78 374.268,288.942 374.268,245.968C374.268,203.665 408.034,169.221 450.08,168.155z" fill="#e52626" stroke-width="10.397" stroke="#000" id="imagebot_3"/>
  <title>imagebot_2</title>
  <text transform="translate(40.2556 671.469) matrix(1.18696 0 0 1.18696 -33.8645 -799.391)" font-weight="bold" xml:space="preserve" text-anchor="middle" font-family="serif" font-size="186" id="imagebot_15" y="622.17969" x="118.78905" stroke-linecap="round" stroke-linejoin="round" stroke-width="0" stroke="#000000" fill="#000000">@</text>
  <rect id="imagebot_16" height="111.32813" width="111.32813" y="65.53906" x="609.02342" fill-opacity="0" stroke-opacity="0" stroke-linecap="null" stroke-linejoin="null" stroke-dasharray="null" stroke-width="10" stroke="#000" fill="none"/>
 </g>
 <metadata>image/svg+xmlOpenclipartMap Location2013-04-16T08:39:00https://openclipart.org/detail/177208/map-location-by-snodnipper-177208snodnipperlocationmappinpinpointpointpointer</metadata>
</svg>